<mxfile host="app.diagrams.net" modified="2023-11-24T00:26:27.618Z" agent="Mozilla/5.0 (Windows NT 10.0; Win64; x64) AppleWebKit/537.36 (KHTML, like Gecko) Chrome/119.0.0.0 Safari/537.36" version="22.1.3" etag="ZkIrVIlM0_Wzm3vJqfdm" type="github">
  <diagram name="第 1 页" id="AqmlGsvc8jq50rwWegEX">
    <mxGraphModel>
      <root>
        <mxCell id="0" />
        <mxCell id="1" parent="0" />
      </root>
    </mxGraphModel>
  </diagram>
</mxfile>
